<?xml version="1.0" encoding="UTF-8"?>
<svg width="13px" height="13px" viewBox="0 0 13 13" version="1.1" xmlns="http://www.w3.org/2000/svg" xmlns:xlink="http://www.w3.org/1999/xlink">
    <!-- Generator: sketchtool 63.1 (101010) - https://sketch.com -->
    <title>38C2B93B-7649-4241-A661-990720407191</title>
    <desc>Created with sketchtool.</desc>
    <defs>
        <path d="M4.625,5.875 L3.375,5.875 L3.375,7.125 L4.625,7.125 L4.625,5.875 L4.625,5.875 Z M7.125,5.875 L5.875,5.875 L5.875,7.125 L7.125,7.125 L7.125,5.875 L7.125,5.875 Z M9.625,5.875 L8.375,5.875 L8.375,7.125 L9.625,7.125 L9.625,5.875 L9.625,5.875 Z M10.875,1.5 L10.25,1.5 L10.25,0.25 L9,0.25 L9,1.5 L4,1.5 L4,0.25 L2.75,0.25 L2.75,1.5 L2.125,1.5 C1.43125,1.5 0.88125,2.0625 0.88125,2.75 L0.875,11.5 C0.875,12.1875 1.43125,12.75 2.125,12.75 L10.875,12.75 C11.5625,12.75 12.125,12.1875 12.125,11.5 L12.125,2.75 C12.125,2.0625 11.5625,1.5 10.875,1.5 L10.875,1.5 Z M10.875,11.5 L2.125,11.5 L2.125,4.625 L10.875,4.625 L10.875,11.5 L10.875,11.5 Z" id="path-1"></path>
        <rect id="path-3" x="0" y="0" width="31.25" height="31.25"></rect>
    </defs>
    <g id="DASHBOARD" stroke="none" stroke-width="1" fill="none" fill-rule="evenodd">
        <g id="PAGE-PROFESSEUR---CLASSROOM" transform="translate(-508.000000, -391.000000)">
            <g id="card" transform="translate(180.000000, 300.000000)">
                <g id="content" transform="translate(30.000000, 30.000000)">
                    <g id="Group" transform="translate(1.000000, 0.000000)">
                        <g id="INFOS" transform="translate(141.000000, 0.000000)">
                            <g id="Infos" transform="translate(0.000000, 60.000000)">
                                <g id="Group-6-Copy" transform="translate(155.000000, 0.000000)">
                                    <g id="ic_keyboard" transform="translate(1.000000, 1.000000)">
                                        <mask id="mask-2" fill="white">
                                            <use xlink:href="#path-1"></use>
                                        </mask>
                                        <g id="Mask"></g>
                                        <g id="🎨-Color" mask="url(#mask-2)">
                                            <g transform="translate(-9.125000, -9.125000)">
                                                <mask id="mask-4" fill="white">
                                                    <use xlink:href="#path-3"></use>
                                                </mask>
                                                <use id="Black" stroke="none" fill="#000000" fill-rule="evenodd" xlink:href="#path-3"></use>
                                            </g>
                                        </g>
                                    </g>
                                </g>
                            </g>
                        </g>
                    </g>
                </g>
            </g>
        </g>
    </g>
</svg>