<?xml version="1.0" encoding="UTF-8"?>
<svg width="25px" height="24px" viewBox="0 0 25 24" version="1.1" xmlns="http://www.w3.org/2000/svg" xmlns:xlink="http://www.w3.org/1999/xlink">
    <!-- Generator: sketchtool 63.1 (101010) - https://sketch.com -->
    <title>A3687883-90A8-4E38-8A27-099716E2E41E</title>
    <desc>Created with sketchtool.</desc>
    <g id="DASHBOARD" stroke="none" stroke-width="1" fill="none" fill-rule="evenodd">
        <g id="PAGE-PROFESSEUR---A-PROPOS" transform="translate(-185.000000, -1011.000000)" fill="#008DD4" fill-rule="nonzero">
            <g id="Contenu" transform="translate(150.000000, 750.000000)">
                <g id="Formations" transform="translate(33.000000, 261.000000)">
                    <g id="Group-11" transform="translate(2.000000, 0.000000)">
                        <path d="M24.2721558,4.17987822 C24.2706299,4.17987822 24.269104,4.1796875 24.2675781,4.1796875 L17.6269531,4.1796875 L17.6269531,3.44726562 C17.6269531,2.23571777 16.6412354,5.32907052e-15 15.4296875,5.32907052e-15 L9.5703125,5.32907052e-15 C8.35876465,5.32907052e-15 7.37304688,2.23571777 7.37304688,3.44726562 L7.37304688,4.1796875 L0.732421875,4.1796875 C0.324630762,4.1796875 0,4.51385498 0,4.91210937 L0,21.0253906 C0,22.2369385 0.985717773,23.2226562 2.19726563,23.2226562 L22.8027344,23.2226562 C24.0142822,23.2226562 25,22.2369385 25,21.0253906 L25,4.92755889 C24.971962,4.44366455 24.6761322,4.18254854 24.2721558,4.17987822 Z M8.83789062,2.82226563 C8.83789062,2.07391614 9.16652681,1.46484375 9.5703125,1.46484375 L15.4296875,1.46484375 C15.8334732,1.46484375 16.1621094,2.07391614 16.1621094,2.82226563 L16.1621094,4.1796875 L8.83789062,4.1796875 L8.83789062,2.82226563 Z M23.2513428,5.64453125 L20.9768295,12.4678803 C20.8770752,12.7675247 20.5978394,12.96875 20.2821731,12.96875 L16.1621094,12.96875 L16.1621094,12.2363281 C16.1621094,11.8317795 15.8342361,11.5039063 15.4296875,11.5039063 L9.5703125,11.5039063 C9.16576387,11.5039063 8.83789062,11.8317795 8.83789062,12.2363281 L8.83789062,12.96875 L4.71782686,12.96875 C4.40216064,12.96875 4.1229248,12.7675247 4.02317046,12.4678803 L1.74865723,5.64453125 L23.2513428,5.64453125 Z M14.6972656,12.35 L14.6972656,15.0648437 L10.3027344,15.0648437 L10.3027344,12.35 L14.6972656,12.35 Z M23.5351562,21.0253906 C23.5351562,21.4291763 23.2065201,21.7578125 22.8027344,21.7578125 L2.19726562,21.7578125 C1.79347993,21.7578125 1.46484375,21.4291763 1.46484375,21.0253906 L1.46484375,9.42546846 L2.63347627,12.9311752 C2.93292998,13.8299179 3.7706375,14.4335938 4.71782686,14.4335938 L8.83789062,14.4335938 L8.83789062,15.1660156 C8.83789062,15.5705643 9.16576387,15.8984375 9.5703125,15.8984375 L15.4296875,15.8984375 C15.8342361,15.8984375 16.1621094,15.5705643 16.1621094,15.1660156 L16.1621094,14.4335938 L20.2821731,14.4335938 C21.2293625,14.4335938 22.06707,13.8299179 22.3665237,12.9311752 L23.5351562,9.42546846 L23.5351562,21.0253906 Z" id="Shape"></path>
                    </g>
                </g>
            </g>
        </g>
    </g>
</svg>