<?xml version="1.0" encoding="UTF-8"?>
<svg width="28px" height="17px" viewBox="0 0 28 17" version="1.1" xmlns="http://www.w3.org/2000/svg" xmlns:xlink="http://www.w3.org/1999/xlink">
    <!-- Generator: sketchtool 63.1 (101010) - https://sketch.com -->
    <title>50E623D7-BC0F-4739-BAB8-D02CCD93095E</title>
    <desc>Created with sketchtool.</desc>
    <defs>
        <path d="M14,0.80859375 L13.7265625,0.890625 L2.7890625,4.5546875 L0.30078125,5.375 L1.75,5.83984375 L1.75,13.4960938 C1.22771635,13.7988814 0.875,14.3528465 0.875,15 C0.875,15.9664979 1.65850169,16.75 2.625,16.75 C3.59149831,16.75 4.375,15.9664979 4.375,15 C4.375,14.3528465 4.02228365,13.7988814 3.5,13.4960938 L3.5,6.44140625 L5.25,7.015625 L5.25,11.5 C5.25,12.2170625 5.68683973,12.812661 6.20703125,13.2226562 C6.72722277,13.6326515 7.37257203,13.9210655 8.1484375,14.1796875 C9.70016862,14.6969315 11.7463885,15 14,15 C16.2536115,15 18.2998314,14.6969315 19.8515625,14.1796875 C20.6274276,13.9210655 21.2727769,13.6326515 21.7929688,13.2226562 C22.3131606,12.812661 22.75,12.2170625 22.75,11.5 L22.75,7.015625 L25.2109375,6.1953125 L27.6992188,5.375 L25.2109375,4.5546875 L14.2734375,0.890625 L14,0.80859375 Z M14,2.640625 L22.203125,5.375 L14,8.109375 L5.796875,5.375 L14,2.640625 Z M6.99999909,7.6171875 L13.7265625,9.859375 L13.9999991,9.94140625 L14.2734375,9.859375 L20.9999991,7.6171875 L20.9999991,11.5 C20.9999991,11.507875 21.003325,11.6100076 20.7265625,11.828125 C20.4498201,12.0462424 19.9538692,12.3226689 19.3046875,12.5390625 C18.0063249,12.9718497 16.0960135,13.25 13.9999991,13.25 C11.9039865,13.25 9.99367512,12.9718497 8.6953125,12.5390625 C8.0461311,12.3226689 7.55017952,12.0462424 7.2734375,11.828125 C6.99669548,11.6100076 6.99999909,11.507875 6.99999909,11.5 L6.99999909,7.6171875 Z" id="path-1"></path>
    </defs>
    <g id="DASHBOARD" stroke="none" stroke-width="1" fill="none" fill-rule="evenodd">
        <g id="PAGE-PROFESSEUR---A-PROPOS" transform="translate(-841.000000, -1013.000000)">
            <g id="Contenu" transform="translate(150.000000, 750.000000)">
                <g id="Training" transform="translate(691.000000, 261.000000)">
                    <g id="Group-8">
                        <g id="Langues-Copy" transform="translate(0.000000, 2.000000)">
                            <mask id="mask-2" fill="white">
                                <use xlink:href="#path-1"></use>
                            </mask>
                            <use id="Mask" fill="#008DD4" fill-rule="nonzero" xlink:href="#path-1"></use>
                        </g>
                    </g>
                </g>
            </g>
        </g>
    </g>
</svg>