<?xml version="1.0" encoding="UTF-8"?>
<svg width="14px" height="4px" viewBox="0 0 14 4" version="1.1" xmlns="http://www.w3.org/2000/svg" xmlns:xlink="http://www.w3.org/1999/xlink">
    <!-- Generator: sketchtool 63.1 (101010) - https://sketch.com -->
    <title>0F156657-F61F-468A-917C-DA5CE36F82C4</title>
    <desc>Created with sketchtool.</desc>
    <g id="DASHBOARD" stroke="none" stroke-width="1" fill="none" fill-rule="evenodd">
        <g id="PAGE-PROFESSEUR---CLASSROOM" transform="translate(-579.000000, -846.000000)">
            <g id="Classroom" transform="translate(151.000000, 834.000000)">
                <g id="Icon-/-icon-delete" transform="translate(425.000000, 4.000000)">
                    <polygon id="Shape" points="0 0 20 0 20 20 0 20"></polygon>
                    <path d="M5,8.33333333 C4.08333333,8.33333333 3.33333333,9.08333333 3.33333333,10 C3.33333333,10.9166667 4.08333333,11.6666667 5,11.6666667 C5.91666667,11.6666667 6.66666667,10.9166667 6.66666667,10 C6.66666667,9.08333333 5.91666667,8.33333333 5,8.33333333 L5,8.33333333 Z M15,8.33333333 C14.0833333,8.33333333 13.3333333,9.08333333 13.3333333,10 C13.3333333,10.9166667 14.0833333,11.6666667 15,11.6666667 C15.9166667,11.6666667 16.6666667,10.9166667 16.6666667,10 C16.6666667,9.08333333 15.9166667,8.33333333 15,8.33333333 L15,8.33333333 Z M10,8.33333333 C9.08333333,8.33333333 8.33333333,9.08333333 8.33333333,10 C8.33333333,10.9166667 9.08333333,11.6666667 10,11.6666667 C10.9166667,11.6666667 11.6666667,10.9166667 11.6666667,10 C11.6666667,9.08333333 10.9166667,8.33333333 10,8.33333333 L10,8.33333333 Z" id="Shape" fill="#110F24"></path>
                </g>
            </g>
        </g>
    </g>
</svg>