<?xml version="1.0" encoding="UTF-8"?>
<svg width="26px" height="26px" viewBox="0 0 26 26" version="1.1" xmlns="http://www.w3.org/2000/svg" xmlns:xlink="http://www.w3.org/1999/xlink">
    <!-- Generator: sketchtool 63.1 (101010) - https://sketch.com -->
    <title>7FEE3C86-302D-43E1-AC8B-31CA3947B334</title>
    <desc>Created with sketchtool.</desc>
    <defs>
        <path d="M23,0.5 L3,0.5 C1.625,0.5 0.5125,1.625 0.5125,3 L0.5,25.5 L5.5,20.5 L23,20.5 C24.375,20.5 25.5,19.375 25.5,18 L25.5,3 C25.5,1.625 24.375,0.5 23,0.5 L23,0.5 Z M20.5,15.5 L5.5,15.5 L5.5,13 L20.5,13 L20.5,15.5 L20.5,15.5 Z M20.5,11.75 L5.5,11.75 L5.5,9.25 L20.5,9.25 L20.5,11.75 L20.5,11.75 Z M20.5,8 L5.5,8 L5.5,5.5 L20.5,5.5 L20.5,8 L20.5,8 Z" id="path-1"></path>
        <rect id="path-3" x="0" y="0" width="62.5" height="62.5"></rect>
    </defs>
    <g id="DASHBOARD" stroke="none" stroke-width="1" fill="none" fill-rule="evenodd">
        <g id="PAGE-PROFESSEUR---COURS" transform="translate(-1021.000000, -22.000000)">
            <g id="Header">
                <g id="icones" transform="translate(856.000000, 20.000000)">
                    <g id="ic_group-copy-2" transform="translate(165.000000, 2.000000)">
                        <mask id="mask-2" fill="white">
                            <use xlink:href="#path-1"></use>
                        </mask>
                        <g id="Mask"></g>
                        <g id="🎨-Color" mask="url(#mask-2)">
                            <g transform="translate(-18.250000, -18.250000)">
                                <mask id="mask-4" fill="white">
                                    <use xlink:href="#path-3"></use>
                                </mask>
                                <use id="grise" stroke="none" fill="#D8D8D8" fill-rule="evenodd" xlink:href="#path-3"></use>
                            </g>
                        </g>
                    </g>
                </g>
            </g>
        </g>
    </g>
</svg>