<?xml version="1.0" encoding="UTF-8"?>
<svg width="50px" height="50px" viewBox="0 0 50 50" version="1.1" xmlns="http://www.w3.org/2000/svg" xmlns:xlink="http://www.w3.org/1999/xlink">
    <!-- Generator: sketchtool 63.1 (101010) - https://sketch.com -->
    <title>AEE4FC42-3F91-4026-961A-FF653EC9DDAE</title>
    <desc>Created with sketchtool.</desc>
    <defs>
        <path d="M20,36.25 L35,25 L20,13.75 L20,36.25 L20,36.25 Z M25,0 C11.2,0 0,11.2 0,25 C0,38.8 11.2,50 25,50 C38.8,50 50,38.8 50,25 C50,11.2 38.8,0 25,0 L25,0 Z M25,45 C13.975,45 5,36.025 5,25 C5,13.975 13.975,5 25,5 C36.025,5 45,13.975 45,25 C45,36.025 36.025,45 25,45 L25,45 Z" id="path-1"></path>
        <rect id="path-3" x="0" y="0" width="125" height="125"></rect>
    </defs>
    <g id="DASHBOARD" stroke="none" stroke-width="1" fill="none" fill-rule="evenodd">
        <g id="PAGE-PROFESSEUR---PUBLICATIONS" transform="translate(-273.000000, -1514.000000)">
            <g id="Contenu" transform="translate(150.000000, 750.000000)">
                <g id="Post-PROFESSEUR" transform="translate(0.000000, 570.000000)">
                    <g id="vidéo" transform="translate(24.000000, 124.000000)">
                        <g id="ic_play_circle_outline" transform="translate(99.000000, 70.000000)">
                            <mask id="mask-2" fill="white">
                                <use xlink:href="#path-1"></use>
                            </mask>
                            <g id="Mask"></g>
                            <g id="🎨-Color" mask="url(#mask-2)">
                                <g transform="translate(-37.500000, -37.500000)">
                                    <mask id="mask-4" fill="white">
                                        <use xlink:href="#path-3"></use>
                                    </mask>
                                    <use id="White" stroke="none" fill="#FFFFFF" fill-rule="evenodd" xlink:href="#path-3"></use>
                                </g>
                            </g>
                        </g>
                    </g>
                </g>
            </g>
        </g>
    </g>
</svg>