<?xml version="1.0" encoding="UTF-8"?>
<svg width="15px" height="15px" viewBox="0 0 15 15" version="1.1" xmlns="http://www.w3.org/2000/svg" xmlns:xlink="http://www.w3.org/1999/xlink">
    <!-- Generator: sketchtool 63.1 (101010) - https://sketch.com -->
    <title>EFAAD21C-632A-44EA-91EB-F5129CE48058</title>
    <desc>Created with sketchtool.</desc>
    <defs>
        <path d="M11.25,9.375 C10.5876563,9.375 9.97889648,9.60407227 9.49833984,9.9871582 L6.49582031,8.11057617 C6.58473654,7.70837123 6.58473654,7.29159948 6.49582031,6.88939453 L9.49833984,5.0128125 C9.97889648,5.39592773 10.5876563,5.625 11.25,5.625 C12.803291,5.625 14.0625,4.36579102 14.0625,2.8125 C14.0625,1.25920898 12.803291,0 11.25,0 C9.69670898,0 8.4375,1.25920898 8.4375,2.8125 C8.4375,3.02220703 8.46064453,3.22646484 8.50417969,3.42307617 L5.50166016,5.2996582 C5.02110352,4.91657227 4.41234375,4.6875 3.75,4.6875 C2.19670898,4.6875 0.9375,5.94670898 0.9375,7.5 C0.9375,9.05329102 2.19670898,10.3125 3.75,10.3125 C4.41234375,10.3125 5.02110352,10.0834277 5.50166016,9.7003418 L8.50417969,11.5769238 C8.45979941,11.7774162 8.43744039,11.9821545 8.4375,12.1875 C8.4375,13.740791 9.69670898,15 11.25,15 C12.803291,15 14.0625,13.740791 14.0625,12.1875 C14.0625,10.634209 12.803291,9.375 11.25,9.375 Z" id="path-1"></path>
        <rect id="path-3" x="0" y="0" width="15" height="15"></rect>
    </defs>
    <g id="DASHBOARD" stroke="none" stroke-width="1" fill="none" fill-rule="evenodd">
        <g id="PAGE-PROFESSEUR---CLASSROOM" transform="translate(-602.000000, -562.000000)">
            <g id="card" transform="translate(180.000000, 300.000000)">
                <g id="content" transform="translate(30.000000, 30.000000)">
                    <g id="Group" transform="translate(1.000000, 0.000000)">
                        <g id="Group-2" transform="translate(391.000000, 207.000000)">
                            <g id="Icon+-label-Copy-3" transform="translate(0.000000, 25.000000)">
                                <g id="ic_favorite_border">
                                    <mask id="mask-2" fill="white">
                                        <use xlink:href="#path-1"></use>
                                    </mask>
                                    <g id="Mask"></g>
                                    <g id="🎨-color" mask="url(#mask-2)">
                                        <mask id="mask-4" fill="white">
                                            <use xlink:href="#path-3"></use>
                                        </mask>
                                        <use id="Black" fill="#202841" xlink:href="#path-3"></use>
                                    </g>
                                </g>
                            </g>
                        </g>
                    </g>
                </g>
            </g>
        </g>
    </g>
</svg>