<?xml version="1.0" encoding="UTF-8"?>
<svg width="14px" height="14px" viewBox="0 0 14 14" version="1.1" xmlns="http://www.w3.org/2000/svg" xmlns:xlink="http://www.w3.org/1999/xlink">
    <!-- Generator: sketchtool 63.1 (101010) - https://sketch.com -->
    <title>621DA323-C4B9-41E0-B554-EE5A9D745052</title>
    <desc>Created with sketchtool.</desc>
    <defs>
        <path d="M12.74375,1.5 C12.74375,0.8125 12.1875,0.25 11.5,0.25 L1.5,0.25 C0.8125,0.25 0.25,0.8125 0.25,1.5 L0.25,9 C0.25,9.6875 0.8125,10.25 1.5,10.25 L10.25,10.25 L12.75,12.75 L12.74375,1.5 L12.74375,1.5 Z M10.25,7.75 L2.75,7.75 L2.75,6.5 L10.25,6.5 L10.25,7.75 L10.25,7.75 Z M10.25,5.875 L2.75,5.875 L2.75,4.625 L10.25,4.625 L10.25,5.875 L10.25,5.875 Z M10.25,4 L2.75,4 L2.75,2.75 L10.25,2.75 L10.25,4 L10.25,4 Z" id="path-1"></path>
        <rect id="path-3" x="0" y="0" width="31.25" height="31.25"></rect>
    </defs>
    <g id="DASHBOARD" stroke="none" stroke-width="1" fill="none" fill-rule="evenodd">
        <g id="HOMEPAGE" transform="translate(-488.000000, -1406.000000)">
            <g id="Post-APPRENANTS" transform="translate(423.000000, 1007.000000)">
                <g id="Icon/actions" transform="translate(11.500000, 397.500000)">
                    <g id="Icon+-label-Copy-3" transform="translate(53.000000, 0.000000)">
                        <g id="ic_add_a_photo" transform="translate(1.000000, 2.000000)">
                            <mask id="mask-2" fill="white">
                                <use xlink:href="#path-1"></use>
                            </mask>
                            <g id="Mask"></g>
                            <g id="🎨-Color" mask="url(#mask-2)">
                                <g transform="translate(-9.125000, -9.125000)">
                                    <mask id="mask-4" fill="white">
                                        <use xlink:href="#path-3"></use>
                                    </mask>
                                    <use id="grise" stroke="none" fill="#D8D8D8" fill-rule="evenodd" xlink:href="#path-3"></use>
                                </g>
                            </g>
                        </g>
                    </g>
                </g>
            </g>
        </g>
    </g>
</svg>