<?xml version="1.0" encoding="UTF-8"?>
<svg width="8px" height="7px" viewBox="0 0 8 7" version="1.1" xmlns="http://www.w3.org/2000/svg" xmlns:xlink="http://www.w3.org/1999/xlink">
    <!-- Generator: sketchtool 63.1 (101010) - https://sketch.com -->
    <title>BCCDE195-95DA-44A3-B1C4-6E17A7039E8C</title>
    <desc>Created with sketchtool.</desc>
    <defs>
        <path d="M5.5,0 C4.92,0 4.36333333,0.27 4,0.696666667 C3.63666667,0.27 3.08,0 2.5,0 C1.47333333,0 0.666666667,0.806666667 0.666666667,1.83333333 C0.666666667,3.09333333 1.8,4.12 3.51666667,5.68 L4,6.11666667 L4.48333333,5.67666667 C6.2,4.12 7.33333333,3.09333333 7.33333333,1.83333333 C7.33333333,0.806666667 6.52666667,0 5.5,0 L5.5,0 Z M4.03333333,5.18333333 L4,5.21666667 L3.96666667,5.18333333 C2.38,3.74666667 1.33333333,2.79666667 1.33333333,1.83333333 C1.33333333,1.16666667 1.83333333,0.666666667 2.5,0.666666667 C3.01333333,0.666666667 3.51333333,0.996666667 3.69,1.45333333 L4.31333333,1.45333333 C4.48666667,0.996666667 4.98666667,0.666666667 5.5,0.666666667 C6.16666667,0.666666667 6.66666667,1.16666667 6.66666667,1.83333333 C6.66666667,2.79666667 5.62,3.74666667 4.03333333,5.18333333 L4.03333333,5.18333333 Z" id="path-1"></path>
        <rect id="path-3" x="0" y="0" width="16.6666667" height="16.6666667"></rect>
    </defs>
    <g id="DASHBOARD" stroke="none" stroke-width="1" fill="none" fill-rule="evenodd">
        <g id="HOMEPAGE" transform="translate(-481.000000, -591.000000)">
            <g id="PART-1" transform="translate(423.000000, 312.000000)">
                <g id="1" transform="translate(0.000000, 41.000000)">
                    <g id="Stats-Copy" transform="translate(12.000000, 236.000000)">
                        <g id="Group-6-Copy" transform="translate(46.000000, 0.000000)">
                            <g id="ic_keyboard" transform="translate(0.000000, 2.000000)">
                                <mask id="mask-2" fill="white">
                                    <use xlink:href="#path-1"></use>
                                </mask>
                                <g id="Mask"></g>
                                <g id="🎨-Color" mask="url(#mask-2)">
                                    <g transform="translate(-4.333333, -5.333333)">
                                        <mask id="mask-4" fill="white">
                                            <use xlink:href="#path-3"></use>
                                        </mask>
                                        <use id="Black" stroke="none" fill="#148ACB" fill-rule="evenodd" xlink:href="#path-3"></use>
                                    </g>
                                </g>
                            </g>
                        </g>
                    </g>
                </g>
            </g>
        </g>
    </g>
</svg>