<?xml version="1.0" encoding="UTF-8"?>
<svg width="13px" height="13px" viewBox="0 0 13 13" version="1.1" xmlns="http://www.w3.org/2000/svg" xmlns:xlink="http://www.w3.org/1999/xlink">
    <!-- Generator: sketchtool 63.1 (101010) - https://sketch.com -->
    <title>0B4EA0AB-8756-4723-9CD1-49AF1727CF5B</title>
    <desc>Created with sketchtool.</desc>
    <defs>
        <path d="M1.5,2.75 L0.25,2.75 L0.25,11.5 C0.25,12.1875 0.8125,12.75 1.5,12.75 L10.25,12.75 L10.25,11.5 L1.5,11.5 L1.5,2.75 L1.5,2.75 Z M11.5,0.25 L4,0.25 C3.3125,0.25 2.75,0.8125 2.75,1.5 L2.75,9 C2.75,9.6875 3.3125,10.25 4,10.25 L11.5,10.25 C12.1875,10.25 12.75,9.6875 12.75,9 L12.75,1.5 C12.75,0.8125 12.1875,0.25 11.5,0.25 L11.5,0.25 Z M10.875,5.875 L4.625,5.875 L4.625,4.625 L10.875,4.625 L10.875,5.875 L10.875,5.875 Z M8.375,8.375 L4.625,8.375 L4.625,7.125 L8.375,7.125 L8.375,8.375 L8.375,8.375 Z M10.875,3.375 L4.625,3.375 L4.625,2.125 L10.875,2.125 L10.875,3.375 L10.875,3.375 Z" id="path-1"></path>
        <rect id="path-3" x="0" y="0" width="31.25" height="31.25"></rect>
    </defs>
    <g id="DASHBOARD" stroke="none" stroke-width="1" fill="none" fill-rule="evenodd">
        <g id="HOMEPAGE" transform="translate(-723.000000, -235.000000)">
            <g id="search-copy" transform="translate(717.000000, 218.000000)">
                <g id="search">
                    <g id="ic_add_alarm-copy" transform="translate(6.000000, 17.000000)">
                        <mask id="mask-2" fill="white">
                            <use xlink:href="#path-1"></use>
                        </mask>
                        <g id="Mask"></g>
                        <g id="🎨-Color" mask="url(#mask-2)">
                            <g transform="translate(-9.125000, -9.125000)">
                                <mask id="mask-4" fill="white">
                                    <use xlink:href="#path-3"></use>
                                </mask>
                                <use id="White" stroke="none" fill="#6D6A6A" fill-rule="evenodd" xlink:href="#path-3"></use>
                            </g>
                        </g>
                    </g>
                </g>
            </g>
        </g>
    </g>
</svg>