<?xml version="1.0" encoding="UTF-8"?>
<svg width="11px" height="11px" viewBox="0 0 11 11" version="1.1" xmlns="http://www.w3.org/2000/svg" xmlns:xlink="http://www.w3.org/1999/xlink">
    <!-- Generator: sketchtool 63.1 (101010) - https://sketch.com -->
    <title>62F6CFC3-EC27-441E-8572-2D8D6DD1B300</title>
    <desc>Created with sketchtool.</desc>
    <defs>
        <path d="M5.5,5.5 C6.88125,5.5 8,4.38125 8,3 C8,1.61875 6.88125,0.5 5.5,0.5 C4.11875,0.5 3,1.61875 3,3 C3,4.38125 4.11875,5.5 5.5,5.5 L5.5,5.5 Z M5.5,6.75 C3.83125,6.75 0.5,7.5875 0.5,9.25 L0.5,10.5 L10.5,10.5 L10.5,9.25 C10.5,7.5875 7.16875,6.75 5.5,6.75 L5.5,6.75 Z" id="path-1"></path>
        <rect id="path-3" x="0" y="0" width="31.25" height="31.25"></rect>
    </defs>
    <g id="DASHBOARD" stroke="none" stroke-width="1" fill="none" fill-rule="evenodd">
        <g id="HOMEPAGE" transform="translate(-909.000000, -236.000000)">
            <g id="search-copy-2" transform="translate(902.000000, 218.000000)">
                <g id="search">
                    <g id="ic_add_alarm-copy" transform="translate(7.000000, 18.000000)">
                        <mask id="mask-2" fill="white">
                            <use xlink:href="#path-1"></use>
                        </mask>
                        <g id="Mask"></g>
                        <g id="🎨-Color" mask="url(#mask-2)">
                            <g transform="translate(-10.125000, -10.125000)">
                                <mask id="mask-4" fill="white">
                                    <use xlink:href="#path-3"></use>
                                </mask>
                                <use id="White" stroke="none" fill="#6D6A6A" fill-rule="evenodd" xlink:href="#path-3"></use>
                            </g>
                        </g>
                    </g>
                </g>
            </g>
        </g>
    </g>
</svg>