<?xml version="1.0" encoding="UTF-8"?>
<svg width="12px" height="14px" viewBox="0 0 12 14" version="1.1" xmlns="http://www.w3.org/2000/svg" xmlns:xlink="http://www.w3.org/1999/xlink">
    <!-- Generator: sketchtool 63.1 (101010) - https://sketch.com -->
    <title>BD655186-ECB5-487D-B8A7-9D717076DDCA</title>
    <desc>Created with sketchtool.</desc>
    <defs>
        <path d="M10.25,9.05 C9.775,9.05 9.35,9.2375 9.025,9.53125 L4.56875,6.9375 C4.6,6.79375 4.625,6.65 4.625,6.5 C4.625,6.35 4.6,6.20625 4.56875,6.0625 L8.975,3.49375 C9.3125,3.80625 9.75625,4 10.25,4 C11.2875,4 12.125,3.1625 12.125,2.125 C12.125,1.0875 11.2875,0.25 10.25,0.25 C9.2125,0.25 8.375,1.0875 8.375,2.125 C8.375,2.275 8.4,2.41875 8.43125,2.5625 L4.025,5.13125 C3.6875,4.81875 3.24375,4.625 2.75,4.625 C1.7125,4.625 0.875,5.4625 0.875,6.5 C0.875,7.5375 1.7125,8.375 2.75,8.375 C3.24375,8.375 3.6875,8.18125 4.025,7.86875 L8.475,10.46875 C8.44375,10.6 8.425,10.7375 8.425,10.875 C8.425,11.88125 9.24375,12.7 10.25,12.7 C11.25625,12.7 12.075,11.88125 12.075,10.875 C12.075,9.86875 11.25625,9.05 10.25,9.05 L10.25,9.05 Z" id="path-1"></path>
        <rect id="path-3" x="0" y="0" width="31.25" height="31.25"></rect>
    </defs>
    <g id="DASHBOARD" stroke="none" stroke-width="1" fill="none" fill-rule="evenodd">
        <g id="HOMEPAGE" transform="translate(-549.000000, -1406.000000)">
            <g id="Post-APPRENANTS" transform="translate(423.000000, 1007.000000)">
                <g id="Icon/actions" transform="translate(11.500000, 397.500000)">
                    <g id="Icon+-label-Copy-4" transform="translate(113.000000, 0.000000)">
                        <g id="ic_add_a_photo" transform="translate(1.000000, 2.000000)">
                            <mask id="mask-2" fill="white">
                                <use xlink:href="#path-1"></use>
                            </mask>
                            <g id="Mask"></g>
                            <g id="🎨-Color" mask="url(#mask-2)">
                                <g transform="translate(-9.125000, -9.125000)">
                                    <mask id="mask-4" fill="white">
                                        <use xlink:href="#path-3"></use>
                                    </mask>
                                    <use id="grise" stroke="none" fill="#D8D8D8" fill-rule="evenodd" xlink:href="#path-3"></use>
                                </g>
                            </g>
                        </g>
                    </g>
                </g>
            </g>
        </g>
    </g>
</svg>