<?xml version="1.0" encoding="UTF-8"?>
<svg width="8px" height="6px" viewBox="0 0 8 6" version="1.1" xmlns="http://www.w3.org/2000/svg" xmlns:xlink="http://www.w3.org/1999/xlink">
    <!-- Generator: sketchtool 63.1 (101010) - https://sketch.com -->
    <title>19DB8510-46DC-4E65-939B-09FC5766FA20</title>
    <desc>Created with sketchtool.</desc>
    <defs>
        <path d="M4,0.5 C2.33333333,0.5 0.91,1.53666667 0.333333333,3 C0.91,4.46333333 2.33333333,5.5 4,5.5 C5.66666667,5.5 7.09,4.46333333 7.66666667,3 C7.09,1.53666667 5.66666667,0.5 4,0.5 L4,0.5 Z M4,4.66666667 C3.08,4.66666667 2.33333333,3.92 2.33333333,3 C2.33333333,2.08 3.08,1.33333333 4,1.33333333 C4.92,1.33333333 5.66666667,2.08 5.66666667,3 C5.66666667,3.92 4.92,4.66666667 4,4.66666667 L4,4.66666667 Z M4,2 C3.44666667,2 3,2.44666667 3,3 C3,3.55333333 3.44666667,4 4,4 C4.55333333,4 5,3.55333333 5,3 C5,2.44666667 4.55333333,2 4,2 L4,2 Z" id="path-1"></path>
        <rect id="path-3" x="0" y="0" width="16.6666667" height="16.6666667"></rect>
    </defs>
    <g id="DASHBOARD" stroke="none" stroke-width="1" fill="none" fill-rule="evenodd">
        <g id="HOMEPAGE" transform="translate(-435.000000, -591.000000)">
            <g id="PART-1" transform="translate(423.000000, 312.000000)">
                <g id="1" transform="translate(0.000000, 41.000000)">
                    <g id="Stats-Copy" transform="translate(12.000000, 236.000000)">
                        <g id="Group-6">
                            <g id="ic_keyboard" transform="translate(0.000000, 2.000000)">
                                <mask id="mask-2" fill="white">
                                    <use xlink:href="#path-1"></use>
                                </mask>
                                <g id="Mask"></g>
                                <g id="🎨-Color" mask="url(#mask-2)">
                                    <g transform="translate(-4.333333, -5.333333)">
                                        <mask id="mask-4" fill="white">
                                            <use xlink:href="#path-3"></use>
                                        </mask>
                                        <use id="Black" stroke="none" fill="#148ACB" fill-rule="evenodd" xlink:href="#path-3"></use>
                                    </g>
                                </g>
                            </g>
                        </g>
                    </g>
                </g>
            </g>
        </g>
    </g>
</svg>